<mxfile host="65bd71144e" modified="2020-11-19T05:16:17.010Z" agent="5.0 (Windows NT 10.0; Win64; x64) AppleWebKit/537.36 (KHTML, like Gecko) Code/1.51.1 Chrome/83.0.4103.122 Electron/9.3.3 Safari/537.36" etag="a8BKvXtX2jXYiph7PIvF" version="13.6.5">
    <diagram id="4V5M9ovyeSUm71P1FHVp" name="Page-1">
        <mxGraphModel dx="625" dy="478" grid="1" gridSize="10" guides="1" tooltips="1" connect="1" arrows="1" fold="1" page="1" pageScale="1" pageWidth="850" pageHeight="1100" background="none" math="0" shadow="0">
            <root>
                <mxCell id="0"/>
                <mxCell id="1" parent="0"/>
                <mxCell id="42" value="" style="whiteSpace=wrap;html=1;aspect=fixed;" vertex="1" parent="1">
                    <mxGeometry x="30" y="30" width="900" height="900" as="geometry"/>
                </mxCell>
                <mxCell id="27" value="" style="group" parent="1" vertex="1" connectable="0">
                    <mxGeometry x="255" y="110" width="340" height="390" as="geometry"/>
                </mxCell>
                <mxCell id="9" value="Actor" style="shape=umlActor;verticalLabelPosition=bottom;verticalAlign=top;html=1;outlineConnect=0;" parent="27" vertex="1">
                    <mxGeometry y="10" width="130" height="315" as="geometry"/>
                </mxCell>
                <mxCell id="11" value="" style="endArrow=none;html=1;" parent="27" target="16" edge="1">
                    <mxGeometry width="50" height="50" relative="1" as="geometry">
                        <mxPoint x="130" y="110" as="sourcePoint"/>
                        <mxPoint x="210" y="40" as="targetPoint"/>
                    </mxGeometry>
                </mxCell>
                <mxCell id="12" value="" style="endArrow=none;html=1;" parent="27" target="17" edge="1">
                    <mxGeometry width="50" height="50" relative="1" as="geometry">
                        <mxPoint x="130" y="110" as="sourcePoint"/>
                        <mxPoint x="280" y="60" as="targetPoint"/>
                    </mxGeometry>
                </mxCell>
                <mxCell id="13" value="" style="endArrow=none;html=1;" parent="27" edge="1">
                    <mxGeometry width="50" height="50" relative="1" as="geometry">
                        <mxPoint x="130" y="110" as="sourcePoint"/>
                        <mxPoint x="250" y="110" as="targetPoint"/>
                    </mxGeometry>
                </mxCell>
                <mxCell id="14" value="" style="endArrow=none;html=1;" parent="27" edge="1">
                    <mxGeometry width="50" height="50" relative="1" as="geometry">
                        <mxPoint x="130" y="110" as="sourcePoint"/>
                        <mxPoint x="210" y="180" as="targetPoint"/>
                    </mxGeometry>
                </mxCell>
                <mxCell id="22" value="" style="endArrow=none;html=1;" parent="27" edge="1">
                    <mxGeometry width="50" height="50" relative="1" as="geometry">
                        <mxPoint x="130" y="110" as="sourcePoint"/>
                        <mxPoint x="290" y="150" as="targetPoint"/>
                    </mxGeometry>
                </mxCell>
                <mxCell id="23" value="Send message to doctor" style="text;html=1;strokeColor=none;fillColor=none;align=center;verticalAlign=middle;whiteSpace=wrap;rounded=0;" parent="27" vertex="1">
                    <mxGeometry x="290" y="140" width="40" height="20" as="geometry"/>
                </mxCell>
                <mxCell id="25" value="" style="group" parent="27" vertex="1" connectable="0">
                    <mxGeometry x="210" width="90" height="200" as="geometry"/>
                </mxCell>
                <mxCell id="16" value="Register" style="text;html=1;strokeColor=none;fillColor=none;align=center;verticalAlign=middle;whiteSpace=wrap;rounded=0;" parent="25" vertex="1">
                    <mxGeometry x="10" width="40" height="20" as="geometry"/>
                </mxCell>
                <mxCell id="17" value="Login" style="text;html=1;strokeColor=none;fillColor=none;align=center;verticalAlign=middle;whiteSpace=wrap;rounded=0;" parent="25" vertex="1">
                    <mxGeometry x="50" y="50" width="40" height="20" as="geometry"/>
                </mxCell>
                <mxCell id="18" value="View files&amp;nbsp;" style="text;html=1;strokeColor=none;fillColor=none;align=center;verticalAlign=middle;whiteSpace=wrap;rounded=0;" parent="25" vertex="1">
                    <mxGeometry x="50" y="100" width="40" height="20" as="geometry"/>
                </mxCell>
                <mxCell id="24" style="edgeStyle=orthogonalEdgeStyle;rounded=0;orthogonalLoop=1;jettySize=auto;html=1;exitX=0.5;exitY=1;exitDx=0;exitDy=0;" parent="25" source="20" edge="1">
                    <mxGeometry relative="1" as="geometry">
                        <mxPoint x="20" y="200" as="targetPoint"/>
                    </mxGeometry>
                </mxCell>
                <mxCell id="20" value="View appointments" style="text;html=1;strokeColor=none;fillColor=none;align=center;verticalAlign=middle;whiteSpace=wrap;rounded=0;" parent="25" vertex="1">
                    <mxGeometry y="180" width="40" height="20" as="geometry"/>
                </mxCell>
                <mxCell id="41" value="" style="group" parent="1" vertex="1" connectable="0">
                    <mxGeometry x="250" y="500" width="350" height="360" as="geometry"/>
                </mxCell>
                <mxCell id="28" value="Actor" style="shape=umlActor;verticalLabelPosition=bottom;verticalAlign=top;html=1;outlineConnect=0;" parent="41" vertex="1">
                    <mxGeometry y="60" width="170" height="300" as="geometry"/>
                </mxCell>
                <mxCell id="40" value="" style="group" parent="41" vertex="1" connectable="0">
                    <mxGeometry x="180" width="170" height="230" as="geometry"/>
                </mxCell>
                <mxCell id="29" value="" style="endArrow=none;html=1;" parent="40" edge="1">
                    <mxGeometry width="50" height="50" relative="1" as="geometry">
                        <mxPoint x="-10" y="160" as="sourcePoint"/>
                        <mxPoint x="100" y="100" as="targetPoint"/>
                    </mxGeometry>
                </mxCell>
                <mxCell id="30" value="" style="endArrow=none;html=1;" parent="40" edge="1">
                    <mxGeometry width="50" height="50" relative="1" as="geometry">
                        <mxPoint x="-10" y="160" as="sourcePoint"/>
                        <mxPoint x="90" y="210" as="targetPoint"/>
                    </mxGeometry>
                </mxCell>
                <mxCell id="31" value="" style="endArrow=none;html=1;" parent="40" edge="1">
                    <mxGeometry width="50" height="50" relative="1" as="geometry">
                        <mxPoint x="-10" y="160" as="sourcePoint"/>
                        <mxPoint x="120" y="150" as="targetPoint"/>
                    </mxGeometry>
                </mxCell>
                <mxCell id="32" value="" style="endArrow=none;html=1;" parent="40" edge="1">
                    <mxGeometry width="50" height="50" relative="1" as="geometry">
                        <mxPoint x="60" y="20" as="sourcePoint"/>
                        <mxPoint x="-10" y="160" as="targetPoint"/>
                    </mxGeometry>
                </mxCell>
                <mxCell id="33" value="Send File" style="text;html=1;strokeColor=none;fillColor=none;align=center;verticalAlign=middle;whiteSpace=wrap;rounded=0;" parent="40" vertex="1">
                    <mxGeometry x="100" y="210" width="40" height="20" as="geometry"/>
                </mxCell>
                <mxCell id="34" value="Login" style="text;html=1;strokeColor=none;fillColor=none;align=center;verticalAlign=middle;whiteSpace=wrap;rounded=0;" parent="40" vertex="1">
                    <mxGeometry x="60" width="40" height="20" as="geometry"/>
                </mxCell>
                <mxCell id="36" value="Set Appointment" style="text;html=1;strokeColor=none;fillColor=none;align=center;verticalAlign=middle;whiteSpace=wrap;rounded=0;" parent="40" vertex="1">
                    <mxGeometry x="110" y="80" width="40" height="20" as="geometry"/>
                </mxCell>
                <mxCell id="37" style="edgeStyle=orthogonalEdgeStyle;rounded=0;orthogonalLoop=1;jettySize=auto;html=1;exitX=0.5;exitY=1;exitDx=0;exitDy=0;entryX=1;entryY=1;entryDx=0;entryDy=0;" parent="40" source="36" target="36" edge="1">
                    <mxGeometry relative="1" as="geometry"/>
                </mxCell>
                <mxCell id="38" value="View Profile" style="text;html=1;strokeColor=none;fillColor=none;align=center;verticalAlign=middle;whiteSpace=wrap;rounded=0;" parent="40" vertex="1">
                    <mxGeometry x="120" y="140" width="40" height="20" as="geometry"/>
                </mxCell>
            </root>
        </mxGraphModel>
    </diagram>
</mxfile>